Coordinates
version=1
nRows=12
nColumns=24
inDegrees=yes

Units are S.I. units (second, meters, Newtons, ...)
Angles are in degrees.

endheader
time	pelvis_tilt	pelvis_list	pelvis_rotation	pelvis_tx	pelvis_ty	pelvis_tz	hip_flexion_r	hip_adduction_r	hip_rotation_r	knee_angle_r	ankle_angle_r	subtalar_angle_r	mtp_angle_r	hip_flexion_l	hip_adduction_l	hip_rotation_l	knee_angle_l	ankle_angle_l	subtalar_angle_l	mtp_angle_l	lumbar_extension	lumbar_bending	lumbar_rotation
      2.44000000	      5.03295240	      7.83382647	     -4.85665728	     -0.74802062	      0.97583661	      0.04146293	     -8.79896505	     -9.32522877	     -8.00564334	    -18.65961794	     17.50505277	      3.94845027	      0.17574362	     15.79337235	      6.02416267	    -22.24914044	     -2.66847942	     -3.51839102	     10.84752531	     38.86076137	    -18.43237656	    -10.18760956	     13.31728895
      2.44500000	      5.08441964	      7.92046841	     -4.92831282	     -0.74266782	      0.97548555	      0.04099662	     -9.19136801	     -9.48451252	     -7.99527399	    -18.65093742	     17.54885468	      3.93112230	      0.22171816	     15.81472206	      6.07906868	    -22.04216538	     -3.36518569	     -3.48273231	      9.87850317	     38.83580019	    -18.45810887	    -10.35142202	     13.27529518
      2.45000000	      5.13252812	      8.01738971	     -4.95538390	     -0.73728040	      0.97515496	      0.04042488	     -9.58131537	     -9.65498386	     -8.05648033	    -18.66153311	     17.55201559	      3.94431482	      0.36131828	     15.82097509	      6.17382499	    -21.74959446	     -4.01837380	     -3.52671829	      8.88007088	     38.87252679	    -18.48626769	    -10.51047399	     13.17114734
      2.45500000	      5.18978743	      8.13141738	     -4.95066077	     -0.73180131	      0.97487705	      0.03976487	     -9.99035710	     -9.84453671	     -8.16862571	    -18.67154756	     17.38285640	      3.92951622	      1.55965945	     15.78372932	      6.31638531	    -21.42408274	     -4.58952003	     -3.71718791	      7.88439065	     39.80494046	    -18.52067540	    -10.67614894	     13.02939076
      2.46000000	      5.18989732	      8.21825941	     -4.97378930	     -0.72643883	      0.97457023	      0.03911187	    -10.27422232	    -10.00327056	     -8.16620952	    -18.77288187	     17.31261363	      3.88904596	      1.77311644	     15.80212681	      6.42763148	    -21.08874034	     -5.13643103	     -3.87136236	      6.96134864	     39.82247402	    -18.50022604	    -10.81538490	     12.94719142
      2.46500000	      5.17926890	      8.32340558	     -4.99131668	     -0.72106152	      0.97430026	      0.03839032	    -10.51430907	    -10.18623491	     -8.16034355	    -18.93459217	     17.20181527	      3.80171333	      2.15965563	     15.80601208	      6.57772991	    -20.72754683	     -5.61119001	     -4.10158441	      6.06995787	     39.97924594	    -18.46725417	    -10.96743769	     12.87363338
      2.47000000	      5.17886976	      8.45466516	     -5.02384598	     -0.71566974	      0.97410045	      0.03768955	    -10.72481567	    -10.39821060	     -8.09784782	    -19.14710621	     16.84808282	      3.58080143	      4.02639423	     15.76184734	      6.76504691	    -20.42314498	     -5.97912847	     -4.52125504	      5.26967108	     41.11826497	    -18.44461030	    -11.15282542	     12.76391501
      2.47500000	      5.17086188	      8.57768994	     -5.04041818	     -0.71029277	      0.97395558	      0.03687424	    -10.89112960	    -10.60951108	     -8.04859545	    -19.44030212	     16.68888236	      3.44988887	      4.29109032	     15.71161452	      6.96473003	    -20.03545025	     -6.32406430	     -4.80811044	      4.55323608	     41.15366502	    -18.41791731	    -11.31640036	     12.70781038
      2.48000000	      5.09977194	      8.71509324	     -4.99314254	     -0.70489737	      0.97378336	      0.03595856	    -10.95927219	    -10.82825647	     -8.05771625	    -19.80817667	     16.35035481	      3.28893288	      5.64874296	     15.71654082	      7.19472652	    -19.60802934	     -6.62834898	     -5.22217427	      3.84733200	     41.84066614	    -18.33433369	    -11.47274807	     12.49961984
      2.48500000	      5.05278857	      8.83716243	     -5.02282758	     -0.69956741	      0.97372387	      0.03508568	    -10.96976002	    -11.04523832	     -7.91419226	    -20.27367125	     15.95892116	      2.99419866	      6.86719181	     15.67501533	      7.40383285	    -19.23310602	     -6.88502937	     -5.61231551	      3.19513501	     42.35301406	    -18.26798254	    -11.63084810	     12.48162127
      2.49000000	      5.02462027	      8.96615038	     -5.04091400	     -0.69422538	      0.97374937	      0.03416624	    -10.95424044	    -11.27621788	     -7.77555927	    -20.82763855	     15.53241228	      2.69806768	      8.14537011	     15.59998392	      7.63008102	    -18.85534654	     -7.12055912	     -5.97954660	      2.64084497	     42.83970580	    -18.22689765	    -11.79033282	     12.43880959
      2.49500000	      4.99097140	      9.09369729	     -5.05509951	     -0.68889796	      0.97383384	      0.03319778	    -10.87026029	    -11.51111358	     -7.61456594	    -21.48464608	     15.05337351	      2.36745362	      9.41581083	     15.52562640	      7.85904803	    -18.46275608	     -7.35257867	     -6.31408250	      2.11203924	     43.22150531	    -18.18248345	    -11.94244942	     12.40701910
